<?xml version="1.0" encoding="UTF-8" standalone="no"?>
<svg
   width="2842"
   height="1979"
   viewBox="0 0 2842 1979"
   xml:space="preserve"
   overflow="hidden"
   version="1.1"
   id="svg1092"
   sodipodi:docname="toy_structure.svg"
   inkscape:version="1.2.2 (b0a8486541, 2022-12-01)"
   inkscape:export-filename="../../../../Uni/S5/HiWi/toy_structure.png"
   inkscape:export-xdpi="96"
   inkscape:export-ydpi="96"
   xmlns:inkscape="http://www.inkscape.org/namespaces/inkscape"
   xmlns:sodipodi="http://sodipodi.sourceforge.net/DTD/sodipodi-0.dtd"
   xmlns="http://www.w3.org/2000/svg"
   xmlns:svg="http://www.w3.org/2000/svg"><sodipodi:namedview
     id="namedview1094"
     pagecolor="#ffffff"
     bordercolor="#000000"
     borderopacity="0.25"
     inkscape:showpageshadow="2"
     inkscape:pageopacity="1"
     inkscape:pagecheckerboard="0"
     inkscape:deskcolor="#d1d1d1"
     showgrid="false"
     inkscape:zoom="0.3535534"
     inkscape:cx="1262.8927"
     inkscape:cy="998.43475"
     inkscape:window-width="1920"
     inkscape:window-height="1007"
     inkscape:window-x="0"
     inkscape:window-y="0"
     inkscape:window-maximized="1"
     inkscape:current-layer="g1090" /><defs
     id="defs808"><filter
       id="fx0"
       x="-10%"
       y="-10%"
       width="120%"
       height="120%"
       filterUnits="userSpaceOnUse"
       primitiveUnits="userSpaceOnUse"><feComponentTransfer
         color-interpolation-filters="sRGB"
         id="feComponentTransfer568"><feFuncR
           type="discrete"
           tableValues="0.176471 0.176471"
           id="feFuncR560" /><feFuncG
           type="discrete"
           tableValues="0.12549 0.12549"
           id="feFuncG562" /><feFuncB
           type="discrete"
           tableValues="0.0823529 0.0823529"
           id="feFuncB564" /><feFuncA
           type="linear"
           slope="0.501961"
           intercept="0"
           id="feFuncA566" /></feComponentTransfer><feGaussianBlur
         stdDeviation="0 0"
         id="feGaussianBlur570" /></filter><filter
       id="fx1"
       x="-10%"
       y="-10%"
       width="120%"
       height="120%"
       filterUnits="userSpaceOnUse"
       primitiveUnits="userSpaceOnUse"><feComponentTransfer
         color-interpolation-filters="sRGB"
         id="feComponentTransfer581"><feFuncR
           type="discrete"
           tableValues="0.176471 0.176471"
           id="feFuncR573" /><feFuncG
           type="discrete"
           tableValues="0.12549 0.12549"
           id="feFuncG575" /><feFuncB
           type="discrete"
           tableValues="0.0823529 0.0823529"
           id="feFuncB577" /><feFuncA
           type="linear"
           slope="0.501961"
           intercept="0"
           id="feFuncA579" /></feComponentTransfer><feGaussianBlur
         stdDeviation="0 0"
         id="feGaussianBlur583" /></filter><filter
       id="fx2"
       x="-10%"
       y="-10%"
       width="120%"
       height="120%"
       filterUnits="userSpaceOnUse"
       primitiveUnits="userSpaceOnUse"><feComponentTransfer
         color-interpolation-filters="sRGB"
         id="feComponentTransfer594"><feFuncR
           type="discrete"
           tableValues="0.176471 0.176471"
           id="feFuncR586" /><feFuncG
           type="discrete"
           tableValues="0.12549 0.12549"
           id="feFuncG588" /><feFuncB
           type="discrete"
           tableValues="0.0823529 0.0823529"
           id="feFuncB590" /><feFuncA
           type="linear"
           slope="0.501961"
           intercept="0"
           id="feFuncA592" /></feComponentTransfer><feGaussianBlur
         stdDeviation="0 0"
         id="feGaussianBlur596" /></filter><filter
       id="fx3"
       x="-10%"
       y="-10%"
       width="120%"
       height="120%"
       filterUnits="userSpaceOnUse"
       primitiveUnits="userSpaceOnUse"><feComponentTransfer
         color-interpolation-filters="sRGB"
         id="feComponentTransfer607"><feFuncR
           type="discrete"
           tableValues="0.176471 0.176471"
           id="feFuncR599" /><feFuncG
           type="discrete"
           tableValues="0.12549 0.12549"
           id="feFuncG601" /><feFuncB
           type="discrete"
           tableValues="0.0823529 0.0823529"
           id="feFuncB603" /><feFuncA
           type="linear"
           slope="0.501961"
           intercept="0"
           id="feFuncA605" /></feComponentTransfer><feGaussianBlur
         stdDeviation="0 0"
         id="feGaussianBlur609" /></filter><filter
       id="fx4"
       x="-10%"
       y="-10%"
       width="120%"
       height="120%"
       filterUnits="userSpaceOnUse"
       primitiveUnits="userSpaceOnUse"><feComponentTransfer
         color-interpolation-filters="sRGB"
         id="feComponentTransfer620"><feFuncR
           type="discrete"
           tableValues="0.176471 0.176471"
           id="feFuncR612" /><feFuncG
           type="discrete"
           tableValues="0.12549 0.12549"
           id="feFuncG614" /><feFuncB
           type="discrete"
           tableValues="0.0823529 0.0823529"
           id="feFuncB616" /><feFuncA
           type="linear"
           slope="0.501961"
           intercept="0"
           id="feFuncA618" /></feComponentTransfer><feGaussianBlur
         stdDeviation="0 0"
         id="feGaussianBlur622" /></filter><filter
       id="fx5"
       x="-10%"
       y="-10%"
       width="120%"
       height="120%"
       filterUnits="userSpaceOnUse"
       primitiveUnits="userSpaceOnUse"><feComponentTransfer
         color-interpolation-filters="sRGB"
         id="feComponentTransfer633"><feFuncR
           type="discrete"
           tableValues="0.176471 0.176471"
           id="feFuncR625" /><feFuncG
           type="discrete"
           tableValues="0.12549 0.12549"
           id="feFuncG627" /><feFuncB
           type="discrete"
           tableValues="0.0823529 0.0823529"
           id="feFuncB629" /><feFuncA
           type="linear"
           slope="0.501961"
           intercept="0"
           id="feFuncA631" /></feComponentTransfer><feGaussianBlur
         stdDeviation="0 0"
         id="feGaussianBlur635" /></filter><filter
       id="fx7"
       x="-10%"
       y="-10%"
       width="120%"
       height="120%"
       filterUnits="userSpaceOnUse"
       primitiveUnits="userSpaceOnUse"><feComponentTransfer
         color-interpolation-filters="sRGB"
         id="feComponentTransfer659"><feFuncR
           type="discrete"
           tableValues="0.176471 0.176471"
           id="feFuncR651" /><feFuncG
           type="discrete"
           tableValues="0.12549 0.12549"
           id="feFuncG653" /><feFuncB
           type="discrete"
           tableValues="0.0823529 0.0823529"
           id="feFuncB655" /><feFuncA
           type="linear"
           slope="0.501961"
           intercept="0"
           id="feFuncA657" /></feComponentTransfer><feGaussianBlur
         stdDeviation="0 0"
         id="feGaussianBlur661" /></filter><filter
       id="fx8"
       x="-10%"
       y="-10%"
       width="120%"
       height="120%"
       filterUnits="userSpaceOnUse"
       primitiveUnits="userSpaceOnUse"><feComponentTransfer
         color-interpolation-filters="sRGB"
         id="feComponentTransfer672"><feFuncR
           type="discrete"
           tableValues="0.176471 0.176471"
           id="feFuncR664" /><feFuncG
           type="discrete"
           tableValues="0.12549 0.12549"
           id="feFuncG666" /><feFuncB
           type="discrete"
           tableValues="0.0823529 0.0823529"
           id="feFuncB668" /><feFuncA
           type="linear"
           slope="0.501961"
           intercept="0"
           id="feFuncA670" /></feComponentTransfer><feGaussianBlur
         stdDeviation="0 0"
         id="feGaussianBlur674" /></filter><filter
       id="fx9"
       x="-10%"
       y="-10%"
       width="120%"
       height="120%"
       filterUnits="userSpaceOnUse"
       primitiveUnits="userSpaceOnUse"><feComponentTransfer
         color-interpolation-filters="sRGB"
         id="feComponentTransfer685"><feFuncR
           type="discrete"
           tableValues="0.176471 0.176471"
           id="feFuncR677" /><feFuncG
           type="discrete"
           tableValues="0.12549 0.12549"
           id="feFuncG679" /><feFuncB
           type="discrete"
           tableValues="0.0823529 0.0823529"
           id="feFuncB681" /><feFuncA
           type="linear"
           slope="0.501961"
           intercept="0"
           id="feFuncA683" /></feComponentTransfer><feGaussianBlur
         stdDeviation="0 0"
         id="feGaussianBlur687" /></filter><filter
       id="fx10"
       x="-10%"
       y="-10%"
       width="120%"
       height="120%"
       filterUnits="userSpaceOnUse"
       primitiveUnits="userSpaceOnUse"><feComponentTransfer
         color-interpolation-filters="sRGB"
         id="feComponentTransfer698"><feFuncR
           type="discrete"
           tableValues="0.176471 0.176471"
           id="feFuncR690" /><feFuncG
           type="discrete"
           tableValues="0.12549 0.12549"
           id="feFuncG692" /><feFuncB
           type="discrete"
           tableValues="0.0823529 0.0823529"
           id="feFuncB694" /><feFuncA
           type="linear"
           slope="0.501961"
           intercept="0"
           id="feFuncA696" /></feComponentTransfer><feGaussianBlur
         stdDeviation="0 0"
         id="feGaussianBlur700" /></filter><filter
       id="fx11"
       x="-10%"
       y="-10%"
       width="120%"
       height="120%"
       filterUnits="userSpaceOnUse"
       primitiveUnits="userSpaceOnUse"><feComponentTransfer
         color-interpolation-filters="sRGB"
         id="feComponentTransfer711"><feFuncR
           type="discrete"
           tableValues="0.176471 0.176471"
           id="feFuncR703" /><feFuncG
           type="discrete"
           tableValues="0.12549 0.12549"
           id="feFuncG705" /><feFuncB
           type="discrete"
           tableValues="0.0823529 0.0823529"
           id="feFuncB707" /><feFuncA
           type="linear"
           slope="0.501961"
           intercept="0"
           id="feFuncA709" /></feComponentTransfer><feGaussianBlur
         stdDeviation="0 0"
         id="feGaussianBlur713" /></filter><filter
       id="fx12"
       x="-10%"
       y="-10%"
       width="120%"
       height="120%"
       filterUnits="userSpaceOnUse"
       primitiveUnits="userSpaceOnUse"><feComponentTransfer
         color-interpolation-filters="sRGB"
         id="feComponentTransfer724"><feFuncR
           type="discrete"
           tableValues="0.176471 0.176471"
           id="feFuncR716" /><feFuncG
           type="discrete"
           tableValues="0.12549 0.12549"
           id="feFuncG718" /><feFuncB
           type="discrete"
           tableValues="0.0823529 0.0823529"
           id="feFuncB720" /><feFuncA
           type="linear"
           slope="0.501961"
           intercept="0"
           id="feFuncA722" /></feComponentTransfer><feGaussianBlur
         stdDeviation="0 0"
         id="feGaussianBlur726" /></filter><filter
       id="fx13"
       x="-10%"
       y="-10%"
       width="120%"
       height="120%"
       filterUnits="userSpaceOnUse"
       primitiveUnits="userSpaceOnUse"><feComponentTransfer
         color-interpolation-filters="sRGB"
         id="feComponentTransfer737"><feFuncR
           type="discrete"
           tableValues="0.176471 0.176471"
           id="feFuncR729" /><feFuncG
           type="discrete"
           tableValues="0.12549 0.12549"
           id="feFuncG731" /><feFuncB
           type="discrete"
           tableValues="0.0823529 0.0823529"
           id="feFuncB733" /><feFuncA
           type="linear"
           slope="0.501961"
           intercept="0"
           id="feFuncA735" /></feComponentTransfer><feGaussianBlur
         stdDeviation="0 0"
         id="feGaussianBlur739" /></filter><clipPath
       id="clip14"><path
         d="M1628 1718 1731.81 1979 2070.19 1979 2174 1718 1940 1718 1901 1757.09 1862 1718ZM758 305 3600 305 3600 2284 758 2284Z"
         fill-rule="evenodd"
         clip-rule="evenodd"
         id="path742" /></clipPath><clipPath
       id="clip15"><rect
         x="1"
         y="1"
         width="549"
         height="264"
         id="rect745" /></clipPath><clipPath
       id="clip16"><path
         d="M3018 497 3018 809 3512 809 3512 497ZM758 305 3600 305 3600 2284 758 2284Z"
         fill-rule="evenodd"
         clip-rule="evenodd"
         id="path748" /></clipPath><clipPath
       id="clip17"><rect
         x="1"
         y="1"
         width="497"
         height="315"
         id="rect751" /></clipPath><clipPath
       id="clip18"><rect
         x="47"
         y="43"
         width="338"
         height="205"
         id="rect754" /></clipPath><clipPath
       id="clip19"><path
         d="M771 640 771 900 1031 900 1031 640ZM758 305 3600 305 3600 2284 758 2284Z"
         fill-rule="evenodd"
         clip-rule="evenodd"
         id="path757" /></clipPath><clipPath
       id="clip20"><rect
         x="1"
         y="1"
         width="263"
         height="263"
         id="rect760" /></clipPath><clipPath
       id="clip21"><rect
         x="50"
         y="45"
         width="153"
         height="57"
         id="rect763" /></clipPath><clipPath
       id="clip22"><path
         d="M1122 523 1122 900 1875 900 1875 523ZM758 305 3600 305 3600 2284 758 2284Z"
         fill-rule="evenodd"
         clip-rule="evenodd"
         id="path766" /></clipPath><clipPath
       id="clip23"><rect
         x="1"
         y="1"
         width="756"
         height="380"
         id="rect769" /></clipPath><clipPath
       id="clip25"><path
         d="M1823 1160 1823 1458 2317 1458 2317 1160ZM758 305 3600 305 3600 2284 758 2284Z"
         fill-rule="evenodd"
         clip-rule="evenodd"
         id="path775" /></clipPath><clipPath
       id="clip26"><rect
         x="1"
         y="1"
         width="497"
         height="301"
         id="rect778" /></clipPath><clipPath
       id="clip27"><rect
         x="50"
         y="44"
         width="432"
         height="205"
         id="rect781" /></clipPath><clipPath
       id="clip28"><path
         d="M2446 1069 2550.31 1445 3407.69 1445 3512 1069 3017.97 1069 2979 1107.92 2940.03 1069ZM758 305 3600 305 3600 2284 758 2284Z"
         fill-rule="evenodd"
         clip-rule="evenodd"
         id="path784" /></clipPath><clipPath
       id="clip29"><rect
         x="1"
         y="1"
         width="1069"
         height="379"
         id="rect787" /></clipPath><clipPath
       id="clip30"><path
         d="M771 1173 771 1797 1277 1797 1277 1173ZM758 305 3600 305 3600 2284 758 2284Z"
         fill-rule="evenodd"
         clip-rule="evenodd"
         id="path790" /></clipPath><clipPath
       id="clip31"><rect
         x="1"
         y="1"
         width="509"
         height="627"
         id="rect793" /></clipPath><clipPath
       id="clip32"><rect
         x="49"
         y="44"
         width="436"
         height="205"
         id="rect796" /></clipPath><clipPath
       id="clip33"><path
         d="M2550 1705 2550 2264 3408 2264 3408 1705ZM758 305 3600 305 3600 2284 758 2284Z"
         fill-rule="evenodd"
         clip-rule="evenodd"
         id="path799" /></clipPath><clipPath
       id="clip34"><rect
         x="1"
         y="1"
         width="861"
         height="562"
         id="rect802" /></clipPath><clipPath
       id="clip35"><rect
         x="50"
         y="44"
         width="721"
         height="204"
         id="rect805" /></clipPath></defs><g
     transform="translate(-758 -305)"
     id="g1090"><path
       d="M1628 1718 1731.81 1979 2070.19 1979 2174 1718 1940 1718 1901 1757.09 1862 1718 1628 1718Z"
       stroke="#520F1B"
       stroke-width="2.29167"
       stroke-linejoin="round"
       stroke-miterlimit="10"
       fill="#A51E37"
       fill-rule="evenodd"
       id="path818" /><text
       fill="#ffffff"
       font-family="Arial, Arial_MSFontService, sans-serif"
       font-weight="700"
       font-size="78px"
       id="text820"
       x="1700.26"
       y="1845.834">Multiplexer</text><rect
       x="3018"
       y="497"
       width="494"
       height="312"
       stroke="#520F1B"
       stroke-width="2.29167"
       stroke-miterlimit="8"
       fill="#A51E37"
       id="rect842" /><text
       fill="#FFFFFF"
       font-family="Arial,Arial_MSFontService,sans-serif"
       font-weight="700"
       font-size="78"
       transform="matrix(1 0 0 1 3097.32 616)"
       id="text844">ACCU</text><text
       fill="#FFFFFF"
       font-family="Arial,Arial_MSFontService,sans-serif"
       font-weight="700"
       font-size="55"
       transform="matrix(1 0 0 1 3097.32 687)"
       id="text846">Akkumulator</text><path
       d="M3287.92 809 3287.92 1000.25 3242.08 1000.25 3242.08 809ZM3310.83 977.333 3265 1069 3219.17 977.333Z"
       fill="#969696"
       id="path-accu-alu"
       style="fill:#5f5f5f;fill-opacity:1" /><g
       clip-path="url(#clip19)"
       id="g864"><g
         clip-path="url(#clip21)"
         filter="url(#fx4)"
         transform="translate(794 717)"
         id="g862"><g
           id="g860"><path
             d="M18.2432 0 18.2432-46.3887 1.67578-46.3887 1.67578-55.834 46.0459-55.834 46.0459-46.3887 29.5166-46.3887 29.5166 0ZM55.3738-28.1074 45.6618-29.8594C46.7536-33.7695 48.6325-36.6641 51.2986-38.543 53.9646-40.4219 57.9255-41.3613 63.1814-41.3613 67.9548-41.3613 71.5095-40.7964 73.8454-39.6665 76.1814-38.5366 77.8254-37.102 78.7776-35.3628 79.7297-33.6235 80.2058-30.4307 80.2058-25.7842L80.0915-13.292C80.0915-9.7373 80.2629-7.11572 80.6057-5.42725 80.9485-3.73877 81.5896-1.92969 82.529 0L71.9411 0C71.6618-0.710937 71.3191-1.76465 70.9128-3.16113 70.7351-3.7959 70.6081-4.21484 70.532-4.41797 68.7038-2.64062 66.7488-1.30762 64.6667-0.418945 62.5847 0.469726 60.363 0.914062 58.0017 0.914062 53.8376 0.914062 50.5559-0.21582 48.1565-2.47559 45.7571-4.73535 44.5574-7.5918 44.5574-11.0449 44.5574-13.3301 45.1032-15.3677 46.195-17.1577 47.2868-18.9478 48.8166-20.3188 50.7844-21.271 52.7522-22.2231 55.5896-23.0547 59.2966-23.7656 64.2986-24.7051 67.7644-25.5811 69.6941-26.3936L69.6941-27.46C69.6941-29.5166 69.1863-30.9829 68.1706-31.8589 67.155-32.7349 65.238-33.1728 62.4197-33.1728 60.5154-33.1728 59.03-32.7983 57.9636-32.0493 56.8972-31.3003 56.0339-29.9863 55.3738-28.1074ZM69.6941-19.4238C68.323-18.9668 66.1521-18.4209 63.1814-17.7861 60.2107-17.1514 58.2683-16.5293 57.3542-15.9199 55.9577-14.9297 55.2595-13.6729 55.2595-12.1494 55.2595-10.6514 55.8181-9.35644 56.9353-8.26465 58.0525-7.17285 59.4743-6.62695 61.2009-6.62695 63.1306-6.62695 64.9714-7.26172 66.7234-8.53125 68.0183-9.49609 68.8689-10.6768 69.2751-12.0732 69.5544-12.9873 69.6941-14.7266 69.6941-17.291ZM90.5365 0 90.5365-55.834 101.239-55.834 101.239-26.2031 113.769-40.4473 126.947-40.4473 113.121-25.6699 127.937 0 116.397 0 106.228-18.167 101.239-12.9492 101.239 0ZM153.007-40.4473 153.007-31.916 145.694-31.916 145.694-15.6152C145.694-12.3145 145.764-10.3911 145.904-9.84521 146.044-9.29932 146.361-8.84863 146.856-8.49316 147.351-8.13769 147.954-7.95996 148.665-7.95996 149.655-7.95996 151.09-8.30273 152.969-8.98828L153.883-0.685547C151.395 0.380859 148.576 0.914062 145.428 0.914062 143.498 0.914062 141.759 0.590332 140.21-0.0571289 138.661-0.70459 137.525-1.54248 136.801-2.5708 136.078-3.59912 135.576-4.98926 135.297-6.74121 135.068-7.98535 134.954-10.499 134.954-14.2822L134.954-31.916 130.041-31.916 130.041-40.4473 134.954-40.4473 134.954-48.4834 145.694-54.7295 145.694-40.4473Z"
             fill="#FFFFFF"
             transform="matrix(1 0 0 1 48.0588 101)"
             id="path858" /></g></g></g><rect
       x="771"
       y="640"
       width="260"
       height="260"
       stroke="#520F1B"
       stroke-width="2.29167"
       stroke-miterlimit="8"
       fill="#A51E37"
       id="rect866" /><text
       fill="#ffffff"
       font-family="Arial, Arial_MSFontService, sans-serif"
       font-weight="700"
       font-size="78px"
       id="text868"
       x="823.34277"
       y="797.45996">Takt</text><rect
       x="1122"
       y="523"
       width="753"
       height="377"
       stroke="#520F1B"
       stroke-width="2.29167"
       stroke-miterlimit="8"
       fill="#A51E37"
       id="rect886" /><text
       fill="#ffffff"
       font-family="Arial, Arial_MSFontService, sans-serif"
       font-weight="700"
       font-size="78px"
       id="text888"
       x="1495.4849"
       y="645.36182"><tspan
         style="text-align:center;text-anchor:middle"
         id="tspan7431">IR </tspan><tspan
         style="font-size:55px;text-align:center;text-anchor:middle"
         id="tspan7429">Befehlsregister</tspan></text><g
       id="g10007"
       transform="translate(0,2.146)"><rect
         x="1411.4375"
         y="705.5"
         width="437.5625"
         height="168.5"
         fill="#e25f77"
         id="rect902"
         style="stroke-width:1.03523" /><text
         fill="#ffffff"
         font-family="Arial, Arial_MSFontService, sans-serif"
         font-style="italic"
         font-weight="700"
         font-size="55px"
         id="text904"
         x="1522.0315"
         y="762.37012">Adresse</text><text
         fill="#ffffff"
         font-family="Arial, Arial_MSFontService, sans-serif"
         font-weight="700"
         font-size="55px"
         id="text-address"
         x="1630.1785"
         y="866.88818"
         style="font-style:normal;font-variant:normal;font-weight:bold;font-stretch:normal;font-family:'Courier New', 'Courier New_MSFontService', sans-serif;-inkscape-font-specification:'Courier New, Courier New_MSFontService, sans-serif Bold';text-align:center;text-anchor:middle;fill:#000000;fill-opacity:1">4095</text></g><rect
       x="1823"
       y="1160"
       width="494"
       height="298"
       stroke="#520F1B"
       stroke-width="2.29167"
       stroke-miterlimit="8"
       fill="#A51E37"
       id="rect928" /><text
       fill="#FFFFFF"
       font-family="Arial,Arial_MSFontService,sans-serif"
       font-weight="700"
       font-size="78"
       transform="matrix(1 0 0 1 1853.52 1272)"
       id="text930">PC</text><text
       fill="#FFFFFF"
       font-family="Arial,Arial_MSFontService,sans-serif"
       font-weight="700"
       font-size="55"
       transform="matrix(1 0 0 1 1853.52 1343)"
       id="text932">Programmzähler</text><path
       d="M923.917 900 923.917 1104.25 878.084 1104.25 878.083 900ZM946.833 1081.33 901 1173 855.167 1081.33Z"
       fill="#2D2015"
       id="path936" /><path
       id="path-junction-alu"
       style="fill:#5f5f5f;fill-opacity:1;stroke:none;stroke-opacity:1"
       d="M 2397.803,877.083 H 2693 c 12.66,0 22.92,10.26 22.92,22.917 v 100.17 h -45.84 V 900 l 22.92,22.917 h -295.197 z m 341.027,100.169 -45.83,91.668 -45.83,-91.668 z" /><path
       d="M 2359.08,900 V 354 L 2382,376.917 H 1499 L 1521.92,354 v 100.441 h -45.84 V 354 c 0,-12.656 10.26,-22.917 22.92,-22.917 h 883 c 12.66,0 22.92,10.261 22.92,22.917 V 900 Z M 1544.83,431.525 1499,523.191 1453.17,431.525 Z"
       fill="#969696"
       id="path-junction-ir"
       style="display:inline;stroke:none;stroke-opacity:1;fill:#5f5f5f;fill-opacity:1" /><path
       d="M2092.92 1458 2092.92 1649.25 2047.08 1649.25 2047.08 1458ZM2115.83 1626.33 2070 1718 2024.17 1626.33Z"
       fill="#5F5F5F"
       id="path-pc-multiplexer" /><path
       d="m 1758,968.083 h 312 c 12.66,0 22.92,10.261 22.92,22.917 v 100.25 h -45.84 V 991 l 22.92,22.92 h -312 c -21.2118,0 3.3717,-30.75365 0,-45.837 z m 357.83,100.247 -45.83,91.67 -45.83,-91.67 z"
       fill="#5f5f5f"
       id="path-junction-pc"
       sodipodi:nodetypes="cssccccsccccc"
       style="stroke:none;stroke-opacity:1;fill:#5f5f5f;fill-opacity:1" /><path
       id="path-junction-multiplexer"
       style="fill:#5f5f5f;fill-opacity:1;stroke:none;stroke-opacity:1"
       d="m 1780.92,1010.2307 c 0,213.0064 0,426.0129 0,639.0193 h -45.84 l 0,-639.1843 z m 22.91,616.0993 -45.83,91.67 -45.83,-91.67 z"
       sodipodi:nodetypes="ccccccccc" /><path
       d="m 1300.92,900 v 90.851 c 0,12.659 -10.26,22.919 -22.92,22.919 h -130 l 22.92,-22.919 v 113.399 h -45.84 V 990.851 c 0,-12.657 10.26,-22.917 22.92,-22.917 h 130 l -22.92,22.917 V 900 Z m -107.09,181.33 -45.83,91.67 -45.83,-91.67 z"
       fill="#5f5f5f"
       id="path-opcode-control-unit"
       sodipodi:nodetypes="cssccccsscccccccc" /><path
       d="M2446 1069 2550.31 1445 3407.69 1445 3512 1069 3017.97 1069 2979 1107.92 2940.03 1069 2446 1069Z"
       stroke="#520F1B"
       stroke-width="2.29167"
       stroke-linejoin="round"
       stroke-miterlimit="10"
       fill="#A51E37"
       fill-rule="evenodd"
       id="path958" /><text
       fill="#FFFFFF"
       font-family="Arial,Arial_MSFontService,sans-serif"
       font-weight="700"
       font-size="78"
       transform="matrix(1 0 0 1 2581.7 1220)"
       id="text960">ALU</text><text
       fill="#FFFFFF"
       font-family="Arial,Arial_MSFontService,sans-serif"
       font-weight="700"
       font-size="55"
       transform="matrix(1 0 0 1 2581.7 1291)"
       id="text962">Arithmetisch</text><text
       fill="#FFFFFF"
       font-family="Arial,Arial_MSFontService,sans-serif"
       font-weight="700"
       font-size="55"
       transform="matrix(1 0 0 1 2917.43 1291)"
       id="text964">-</text><text
       fill="#FFFFFF"
       font-family="Arial,Arial_MSFontService,sans-serif"
       font-weight="700"
       font-size="55"
       transform="matrix(1 0 0 1 2935.76 1291)"
       id="text966">Logische Einheit</text><path
       d="M3019.5 658.083 2226.5 658.083 2231.08 653.5 2231.08 1137.58 2221.92 1137.58 2221.92 653.5C2221.92 650.969 2223.97 648.917 2226.5 648.917L3019.5 648.917ZM2240.25 1133 2226.5 1160.5 2212.75 1133Z"
       fill="#2D2015"
       id="path-accu-pc-accu-is-zero"
       style="fill:#000000;fill-opacity:1" /><path
       d="M1937.92 1978 1937.92 2095 1915 2072.08 2482.25 2072.08 2482.25 2117.92 1915 2117.92C1902.34 2117.92 1892.08 2107.66 1892.08 2095L1892.08 1978ZM2459.33 2049.17 2551 2095 2459.33 2140.83Z"
       fill="#5F5F5F"
       id="path-multiplexer-ram" /><path
       id="path-junction-ram"
       style="fill:#5f5f5f;fill-opacity:1;stroke:none;stroke-opacity:1"
       d="m 3002.42,1526.6516 -0.5,110.5984 h -45.84 l 0,-110.5984 z m 22.41,87.6784 -45.83,91.67 -45.83,-91.67 z"
       sodipodi:nodetypes="ccccccccc" /><path
       d="m 2979,1501.08 h 598 L 3554.08,1524 V 328 L 3577,350.917 H 3264.83 L 3287.74,328 v 100.306 h -45.83 V 328 c 0,-12.657 10.26,-22.917 22.92,-22.917 H 3577 c 12.66,0 22.92,10.26 22.92,22.917 v 1196 c 0,12.66 -10.26,22.92 -22.92,22.92 h -598 z m 331.66,-1095.691 -45.83,91.667 -45.84,-91.667 z"
       fill="#969696"
       id="path-junction-accu"
       style="display:inline;stroke:none;stroke-opacity:1;fill:#5f5f5f;fill-opacity:1" /><rect
       x="771"
       y="1173"
       width="506"
       height="624"
       stroke="#520F1B"
       stroke-width="2.29167"
       stroke-miterlimit="8"
       fill="#A51E37"
       id="rect998" /><text
       fill="#FFFFFF"
       font-family="Arial,Arial_MSFontService,sans-serif"
       font-weight="700"
       font-size="78"
       transform="matrix(1 0 0 1 805.655 1448)"
       id="text1000">Steuerwerk</text><text
       fill="#FFFFFF"
       font-family="Arial,Arial_MSFontService,sans-serif"
       font-weight="700"
       font-size="55"
       transform="matrix(1 0 0 1 805.655 1519)"
       id="text1002">Mikroprogramm</text><text
       fill="#FFFFFF"
       font-family="Arial,Arial_MSFontService,sans-serif"
       font-weight="700"
       font-size="55"
       transform="matrix(1 0 0 1 1223.88 1519)"
       id="text1004">-</text><text
       fill="#FFFFFF"
       font-family="Arial,Arial_MSFontService,sans-serif"
       font-weight="700"
       font-size="55"
       transform="matrix(1 0 0 1 805.655 1585)"
       id="text1006">speicher</text><path
       d="M1277.5 1193.77 1313.85 1193.77 1313.85 1205.23 1277.5 1205.23ZM1308.12 1182.31 1342.5 1199.5 1308.12 1216.69Z"
       fill="#2D2015"
       id="path-control-unit-write-ram"
       style="fill:#000000;fill-opacity:1" /><path
       d="M1277.5 1245.77 1313.85 1245.77 1313.85 1257.23 1277.5 1257.23ZM1308.12 1234.31 1342.5 1251.5 1308.12 1268.69Z"
       fill="#2D2015"
       id="path-control-unit-inc-pc"
       style="fill:#000000;fill-opacity:1" /><path
       d="M1277.5 1297.77 1313.85 1297.77 1313.85 1309.23 1277.5 1309.23ZM1308.12 1286.31 1342.5 1303.5 1308.12 1320.69Z"
       fill="#2D2015"
       id="path-control-unit-set-pc"
       style="fill:#000000;fill-opacity:1" /><path
       d="M1277.5 1349.77 1313.85 1349.77 1313.85 1361.23 1277.5 1361.23ZM1308.12 1338.31 1342.5 1355.5 1308.12 1372.69Z"
       fill="#2D2015"
       id="path-control-unit-addr-ir"
       style="fill:#000000;fill-opacity:1" /><path
       d="M1277.5 1401.77 1313.85 1401.77 1313.85 1413.23 1277.5 1413.23ZM1308.12 1390.31 1342.5 1407.5 1308.12 1424.69Z"
       fill="#2D2015"
       id="path-control-unit-set-ir"
       style="fill:#000000;fill-opacity:1" /><path
       d="M1277.5 1453.77 1313.85 1453.77 1313.85 1465.23 1277.5 1465.23ZM1308.12 1442.31 1342.5 1459.5 1308.12 1476.69Z"
       fill="#2D2015"
       id="path-control-unit-set-accu"
       style="fill:#000000;fill-opacity:1" /><path
       d="M1277.5 1505.77 1313.85 1505.77 1313.85 1517.23 1277.5 1517.23ZM1308.12 1494.31 1342.5 1511.5 1308.12 1528.69Z"
       fill="#2D2015"
       id="path-control-unit-alucin"
       style="fill:#000000;fill-opacity:1" /><path
       d="M1277.5 1557.77 1313.85 1557.77 1313.85 1569.23 1277.5 1569.23ZM1308.12 1546.31 1342.5 1563.5 1308.12 1580.69Z"
       fill="#2D2015"
       id="path-control-unit-alumode"
       style="fill:#000000;fill-opacity:1" /><path
       d="M1277.5 1609.77 1313.85 1609.77 1313.85 1621.23 1277.5 1621.23ZM1308.12 1598.31 1342.5 1615.5 1308.12 1632.69Z"
       fill="#2D2015"
       id="path-control-unit-alu3"
       style="fill:#000000;fill-opacity:1" /><path
       d="M1277.5 1661.77 1313.85 1661.77 1313.85 1673.23 1277.5 1673.23ZM1308.12 1650.31 1342.5 1667.5 1308.12 1684.69Z"
       fill="#2D2015"
       id="path-control-unit-alu2"
       style="fill:#000000;fill-opacity:1" /><path
       d="M1277.5 1714.77 1313.85 1714.77 1313.85 1726.23 1277.5 1726.23ZM1308.12 1703.31 1342.5 1720.5 1308.12 1737.69Z"
       fill="#2D2015"
       id="path-control-unit-alu1"
       style="fill:#000000;fill-opacity:1" /><path
       d="M1277.5 1766.77 1313.85 1766.77 1313.85 1778.23 1277.5 1778.23ZM1308.12 1755.31 1342.5 1772.5 1308.12 1789.69Z"
       fill="#2D2015"
       id="path-control-unit-alu0"
       style="fill:#000000;fill-opacity:1" /><text
       fill="#333333"
       font-family="Courier New,Courier New_MSFontService,sans-serif"
       font-weight="700"
       font-size="55"
       transform="matrix(1 0 0 1 1342.48 1214)"
       id="text-write-ram"
       style="fill:#000000;fill-opacity:1">WRITE[RAM]</text><text
       fill="#333333"
       font-family="Courier New,Courier New_MSFontService,sans-serif"
       font-weight="700"
       font-size="55"
       transform="matrix(1 0 0 1 1342.48 1266)"
       id="text-inc-pc"
       style="fill:#000000;fill-opacity:1">INC[PC]</text><text
       fill="#333333"
       font-family="Courier New,Courier New_MSFontService,sans-serif"
       font-weight="700"
       font-size="55"
       transform="matrix(1 0 0 1 1342.48 1318)"
       id="text-set-pc"
       style="fill:#000000;fill-opacity:1">SET[PC]</text><text
       fill="#333333"
       font-family="Courier New,Courier New_MSFontService,sans-serif"
       font-weight="700"
       font-size="55"
       transform="matrix(1 0 0 1 1342.48 1370)"
       id="text-addr-ir"
       style="fill:#000000;fill-opacity:1">ADDR=IR</text><text
       fill="#333333"
       font-family="Courier New,Courier New_MSFontService,sans-serif"
       font-weight="700"
       font-size="55"
       transform="matrix(1 0 0 1 1342.48 1422)"
       id="text-set-ir"
       style="fill:#000000;fill-opacity:1">SET[IR]</text><text
       fill="#333333"
       font-family="Courier New,Courier New_MSFontService,sans-serif"
       font-weight="700"
       font-size="55"
       transform="matrix(1 0 0 1 1342.48 1474)"
       id="text-set-accu"
       style="fill:#000000;fill-opacity:1">SET[ACCU]</text><text
       fill="#333333"
       font-family="Courier New,Courier New_MSFontService,sans-serif"
       font-weight="700"
       font-size="55"
       transform="matrix(1 0 0 1 1342.48 1526)"
       id="text-alucin"
       style="fill:#000000;fill-opacity:1">ALUCIN</text><text
       fill="#333333"
       font-family="Courier New,Courier New_MSFontService,sans-serif"
       font-weight="700"
       font-size="55"
       transform="matrix(1 0 0 1 1342.48 1578)"
       id="text-alumode"
       style="fill:#000000;fill-opacity:1">ALUMODE</text><text
       fill="#333333"
       font-family="Courier New,Courier New_MSFontService,sans-serif"
       font-weight="700"
       font-size="55"
       transform="matrix(1 0 0 1 1342.48 1630)"
       id="text-alu3"
       style="fill:#000000;fill-opacity:1">ALU3</text><text
       fill="#333333"
       font-family="Courier New,Courier New_MSFontService,sans-serif"
       font-weight="700"
       font-size="55"
       transform="matrix(1 0 0 1 1342.48 1682)"
       id="text-alu2"
       style="fill:#000000;fill-opacity:1">ALU2</text><text
       fill="#333333"
       font-family="Courier New,Courier New_MSFontService,sans-serif"
       font-weight="700"
       font-size="55"
       transform="matrix(1 0 0 1 1342.48 1735)"
       id="text-alu1"
       style="fill:#000000;fill-opacity:1">ALU1</text><text
       fill="#333333"
       font-family="Courier New,Courier New_MSFontService,sans-serif"
       font-weight="700"
       font-size="55"
       transform="matrix(1 0 0 1 1342.48 1787)"
       id="text-alu0"
       style="fill:#000000;fill-opacity:1">ALU0</text><rect
       x="2550"
       y="1705"
       width="858"
       height="559"
       stroke="#520F1B"
       stroke-width="2.29167"
       stroke-miterlimit="8"
       fill="#A51E37"
       id="rect1078" /><text
       fill="#ffffff"
       font-family="Arial, Arial_MSFontService, sans-serif"
       font-weight="700"
       font-size="78px"
       id="text1080"
       x="2616.28"
       y="2038.5914">RAM</text><text
       fill="#ffffff"
       font-family="Arial, Arial_MSFontService, sans-serif"
       font-weight="700"
       font-size="55px"
       id="text1082"
       x="2616.28"
       y="2109.5916">Programm- / Datenspeicher</text><path
       style="fill:#5f5f5f;fill-opacity:1;stroke:none;stroke-opacity:1"
       d="M 2956.08,1546.92 V 1445 h 45.84 v 101.92 z"
       id="path-alu-junction"
       sodipodi:nodetypes="ccccc" /><path
       style="fill:#5f5f5f;fill-opacity:1;stroke:none;stroke-opacity:1"
       d="m 1629,1013.73 c -12.66,0 -22.92,-10.26 -22.92,-22.921 l 0,-90.809 h 45.84 l 0,68.083 106.08,-0.191 c 12.66,-0.0228 22.92,10.26 22.92,22.917 v 23.111 c -53.3038,-0.2887 -108.6901,-0.1962 -151.92,-0.19 z"
       id="path-instaddress-junction"
       sodipodi:nodetypes="cscccsscc" /><path
       style="fill:#5f5f5f;fill-opacity:1;stroke:none;stroke-opacity:1"
       d="M 2404.92,877.083 V 1874 l -22.92,-22.92 168,0 v 45.84 l -168,0 c -12.66,0 -22.92,-10.26 -22.92,-22.92 V 900 c 0,-12.657 10.26,-22.917 22.92,-22.917 z"
       id="path-ram-junction"
       sodipodi:nodetypes="cccccssssc" /><g
       id="g9991"
       transform="translate(0,-2.854)"><rect
         style="fill:#e25f77;fill-opacity:1;stroke:none;stroke-width:0.567234;stroke-opacity:1"
         id="rect2605"
         width="154"
         height="67"
         x="1992.937"
         y="1370" /><text
         fill="#ffffff"
         font-family="Arial, Arial_MSFontService, sans-serif"
         font-weight="700"
         font-size="55px"
         id="text-program-counter"
         x="2069.9597"
         y="1420.9158"
         style="font-style:normal;font-variant:normal;font-weight:bold;font-stretch:normal;font-family:'Courier New', 'Courier New_MSFontService', sans-serif;-inkscape-font-specification:'Courier New, Courier New_MSFontService, sans-serif Bold';text-align:center;text-anchor:middle;fill:#000000;fill-opacity:1">4095</text></g><g
       id="g10002"
       transform="translate(0,2.146)"><rect
         x="1148"
         y="705.5"
         width="256.5625"
         height="168.5"
         fill="#e25f77"
         id="rect892"
         style="stroke-width:1.0324" /><g
         id="g7427"
         transform="translate(-4.1070312,-19.958496)"><text
           fill="#ffffff"
           font-family="Arial, Arial_MSFontService, sans-serif"
           font-style="italic"
           font-weight="700"
           font-size="55px"
           transform="translate(1160.29,783)"
           id="text894">OP</text><text
           fill="#ffffff"
           font-family="Arial, Arial_MSFontService, sans-serif"
           font-style="italic"
           font-weight="700"
           font-size="55px"
           transform="translate(1239.93,783)"
           id="text896">-</text><text
           fill="#ffffff"
           font-family="Arial, Arial_MSFontService, sans-serif"
           font-style="italic"
           font-weight="700"
           font-size="55px"
           transform="translate(1258.26,783)"
           id="text898">Code</text></g><text
         fill="#ffffff"
         font-family="Arial, Arial_MSFontService, sans-serif"
         font-weight="700"
         font-size="55px"
         x="1276.241"
         y="866.88855"
         id="text1473"><tspan
           sodipodi:role="line"
           x="1292.7437"
           y="866.88855"
           style="font-style:normal;font-variant:normal;font-weight:bold;font-stretch:normal;font-family:'Courier New', 'Courier New_MSFontService', sans-serif;-inkscape-font-specification:'Courier New, Courier New_MSFontService, sans-serif Bold';text-align:center;text-anchor:middle;fill:#000000;fill-opacity:1"
           id="text-opcode">15 </tspan></text><text
         fill="#ffffff"
         font-family="Arial, Arial_MSFontService, sans-serif"
         font-weight="700"
         font-size="55px"
         x="1276.241"
         y="820.57568"
         style="line-height:45px"
         id="text1476"><tspan
           style="font-style:normal;font-variant:normal;font-weight:bold;font-stretch:normal;font-family:'Courier New', 'Courier New_MSFontService', sans-serif;-inkscape-font-specification:'Courier New, Courier New_MSFontService, sans-serif Bold';text-align:center;text-anchor:middle;fill:#000000;fill-opacity:1"
           sodipodi:role="line"
           id="text-mnemonic"
           x="1276.241"
           y="820.57568">NOP</tspan></text></g><g
       id="g9983"
       transform="translate(-5.0000039)"><rect
         style="fill:#e25f77;fill-opacity:1;stroke:none;stroke-width:0.736984;stroke-opacity:1"
         id="rect8431"
         width="186"
         height="67"
         x="2578.854"
         y="1840.5" /><text
         fill="#ffffff"
         font-family="Arial, Arial_MSFontService, sans-serif"
         font-weight="700"
         font-size="55px"
         id="text-ram-out"
         x="2670.8469"
         y="1891.4158"
         style="font-style:normal;font-variant:normal;font-weight:bold;font-stretch:normal;font-family:'Courier New', 'Courier New_MSFontService', sans-serif;-inkscape-font-specification:'Courier New, Courier New_MSFontService, sans-serif Bold';text-align:center;text-anchor:middle;fill:#000000;fill-opacity:1">65535</text></g><g
       id="g9979"
       transform="translate(0,0.64453516)"><rect
         style="fill:#e25f77;fill-opacity:1;stroke:none;stroke-width:0.736984;stroke-opacity:1"
         id="rect8431-7"
         width="186"
         height="67"
         x="2886"
         y="1353.5015" /><text
         fill="#ffffff"
         font-family="Arial, Arial_MSFontService, sans-serif"
         font-weight="700"
         font-size="55px"
         id="text-alu-out"
         x="2977.9929"
         y="1404.4172"
         style="font-style:normal;font-variant:normal;font-weight:bold;font-stretch:normal;font-family:'Courier New', 'Courier New_MSFontService', sans-serif;-inkscape-font-specification:'Courier New, Courier New_MSFontService, sans-serif Bold';text-align:center;text-anchor:middle;fill:#000000;fill-opacity:1">65535</text></g><g
       id="g9975"
       transform="translate(0,-0.17626562)"><rect
         style="fill:#e25f77;fill-opacity:1;stroke:none;stroke-width:0.736984;stroke-opacity:1"
         id="rect8431-7-9"
         width="186"
         height="67"
         x="3172"
         y="718.32227" /><text
         fill="#ffffff"
         font-family="Arial, Arial_MSFontService, sans-serif"
         font-weight="700"
         font-size="55px"
         id="text-accu"
         x="3263.9929"
         y="769.23804"
         style="font-style:normal;font-variant:normal;font-weight:bold;font-stretch:normal;font-family:'Courier New', 'Courier New_MSFontService', sans-serif;-inkscape-font-specification:'Courier New, Courier New_MSFontService, sans-serif Bold';text-align:center;text-anchor:middle;fill:#000000;fill-opacity:1">65535</text></g><g
       id="group-old-accu"
       transform="translate(0,150.01759)"><rect
         style="fill:#e25f77;fill-opacity:0.69803923;stroke:#520f1b;stroke-width:3;stroke-opacity:0.89803922;stroke-dasharray:none"
         id="rect8431-7-9-7"
         width="186"
         height="67"
         x="3172"
         y="718.32227" /><text
         fill="#ffffff"
         font-family="Arial, Arial_MSFontService, sans-serif"
         font-weight="700"
         font-size="55px"
         id="text-old-accu"
         x="3263.9929"
         y="769.23804"
         style="font-style:normal;font-variant:normal;font-weight:bold;font-stretch:normal;font-family:'Courier New', 'Courier New_MSFontService', sans-serif;-inkscape-font-specification:'Courier New, Courier New_MSFontService, sans-serif Bold';text-align:center;text-anchor:middle;fill:#000000;fill-opacity:1">65535</text></g><g
       id="group-old-opcode-and-mnemonic"
       transform="translate(-482.21878,45.836994)"><rect
         style="fill:#e25f77;fill-opacity:0.697035;stroke:#520f1b;stroke-width:3;stroke-dasharray:none;stroke-opacity:0.9"
         id="rect3528-62"
         width="208.13556"
         height="55.775875"
         x="1526.151"
         y="940.19507" /><text
         xml:space="preserve"
         style="font-weight:bold;font-size:55px;font-family:'Courier New', 'Courier New_MSFontService', sans-serif;-inkscape-font-specification:'Courier New, Courier New_MSFontService, sans-serif Bold';text-align:center;text-anchor:middle;fill:#000000;stroke:#160f52;stroke-width:10;stroke-dasharray:none;stroke-opacity:1"
         x="1628.5806"
         y="985.49878"
         id="text1598"><tspan
           sodipodi:role="line"
           id="text-old-opcode-and-mnemonic"
           x="1628.5806"
           y="985.49878"
           style="stroke:none">15 NOP</tspan></text></g><g
       id="group-old-pc"
       transform="translate(439.78123,597.38584)"><rect
         style="fill:#e25f77;fill-opacity:0.697035;stroke:#520f1b;stroke-width:3;stroke-dasharray:none;stroke-opacity:0.9"
         id="rect3528-6"
         width="144.12601"
         height="56.443001"
         x="1558.1558"
         y="939.86151" /><text
         xml:space="preserve"
         style="font-weight:bold;font-size:55px;font-family:'Courier New', 'Courier New_MSFontService', sans-serif;-inkscape-font-specification:'Courier New, Courier New_MSFontService, sans-serif Bold';text-align:center;text-anchor:middle;fill:#000000;stroke:#160f52;stroke-width:10;stroke-dasharray:none;stroke-opacity:1"
         x="1630.0576"
         y="985.49878"
         id="text3322-7"><tspan
           sodipodi:role="line"
           id="text-old-pc"
           x="1630.0576"
           y="985.49878"
           style="stroke:none">4095</tspan></text></g></g></svg>
